<svg width="216" height="48" viewBox="0 0 216 48" fill="none" xmlns="http://www.w3.org/2000/svg">
<path d="M46.0424 10.7802L50.5477 10.8691H54.3416C56.7524 10.8691 58.6493 11.3829 60.0325 12.4104C61.4157 13.4379 62.1073 15.0483 62.1073 17.2417C62.1073 19.4153 61.3663 21.0554 59.8843 22.1619C58.4023 23.2685 56.4658 23.8218 54.0749 23.8218C53.3438 23.8218 52.7905 23.8119 52.415 23.7921C52.3162 23.6736 52.2668 23.5056 52.2668 23.2883L52.415 22.6955C52.6719 22.7152 53.1857 22.7251 53.9563 22.7251C55.5371 22.7251 56.8512 22.2607 57.8985 21.332C58.9655 20.3835 59.499 19.1387 59.499 17.5974C59.499 16.0363 59.0248 14.7025 58.0763 13.596C57.1476 12.4697 55.9916 11.9065 54.6084 11.9065C53.2252 11.9065 52.168 11.946 51.4369 12.0251C51.3184 12.361 51.2294 13.102 51.1702 14.2481C51.1109 15.3941 51.0812 18.4668 51.0812 23.4661V27.1118C51.0812 28.7321 51.1306 30.0659 51.2294 31.1132C52.1582 31.2318 53.4228 31.2911 55.0234 31.2911C55.1024 31.4887 55.1419 31.6863 55.1419 31.8839C55.1419 32.0617 55.1024 32.2 55.0234 32.2988L49.8956 32.2099C48.3939 32.2099 47.0206 32.2889 45.7757 32.447C45.6769 32.3285 45.6275 32.1605 45.6275 31.9431L45.6571 31.706C46.6846 31.4689 47.3565 31.1033 47.6726 30.6093C47.9295 30.2141 48.0975 29.7201 48.1765 29.1273C48.4136 27.3292 48.5322 24.8987 48.5322 21.8359C48.5322 15.2953 48.3544 11.9658 47.9987 11.8472C47.6232 11.7484 46.9712 11.699 46.0424 11.699C46.0029 11.5607 45.9832 11.4026 45.9832 11.2248C45.9832 11.0469 46.0029 10.8987 46.0424 10.7802ZM78.8664 24.9777C78.8664 29.3645 76.3174 31.9728 71.2193 32.8027C69.1248 32.8027 67.3562 32.0617 65.9138 30.5797C64.491 29.0779 63.7797 27.2106 63.7797 24.9777C63.7797 20.5515 66.3386 17.9333 71.4564 17.1231C73.5312 17.1231 75.28 17.8839 76.7027 19.4054C78.1452 20.9269 78.8664 22.7844 78.8664 24.9777ZM71.8714 31.5282C74.7168 31.5282 76.1396 29.7103 76.1396 26.0744C76.1396 24.0194 75.6653 22.2212 74.7168 20.6799C73.7684 19.1387 72.5136 18.368 70.9526 18.368C69.3915 18.368 68.2553 18.8719 67.544 19.8797C66.8524 20.8677 66.5066 22.2904 66.5066 24.1478C66.5066 25.9855 66.9907 27.675 67.9589 29.2163C68.9272 30.7575 70.2313 31.5282 71.8714 31.5282ZM88.9401 30.6686C90.5604 30.6686 91.993 30.2339 93.2379 29.3645C93.5145 29.4633 93.6726 29.6707 93.7121 29.9869L90.511 32.2395C90.0368 32.615 88.9796 32.8027 87.3395 32.8027C85.6995 32.8027 84.3064 32.0716 83.1603 30.6093C82.0142 29.1273 81.4412 27.26 81.4412 25.0074C81.4412 22.7547 82.0636 20.9763 83.3085 19.6722C84.5534 18.368 86.0354 17.5183 87.7545 17.1231C89.2563 17.1231 90.5802 17.627 91.7263 18.6348C92.4179 19.2276 92.902 19.9982 93.1786 20.9467C93.2379 21.1838 93.5145 21.3123 94.0085 21.332C94.1271 21.4703 94.1864 21.6185 94.1864 21.7766C94.1864 21.9149 94.1666 22.0631 94.1271 22.2212C90.6493 23.0314 87.2309 23.5945 83.8717 23.9107C83.8717 26.44 84.5731 28.3369 85.9761 29.6016C86.7665 30.3129 87.7545 30.6686 88.9401 30.6686ZM90.8074 21.6284C90.9062 21.5691 90.9556 21.5 90.9556 21.4209C90.9556 21.3221 90.8272 21.0455 90.5703 20.591C90.3332 20.1168 89.9083 19.6228 89.2958 19.109C88.6832 18.5755 88.041 18.3087 87.3692 18.3087C86.6973 18.3087 86.2033 18.4075 85.8872 18.6051C84.7806 19.356 84.1483 20.7195 83.9902 22.6955C85.0573 22.6955 86.2725 22.5868 87.6359 22.3694C88.9994 22.1323 90.0565 21.8853 90.8074 21.6284ZM100.903 25.8373C100.903 29.1175 101.466 30.7575 102.592 30.7575C103.422 30.7575 104.499 30.4809 105.823 29.9276C106.119 30.0264 106.268 30.3031 106.268 30.7575C104.825 31.5282 103.165 32.2099 101.288 32.8027C100.359 32.8027 99.6481 32.3285 99.1541 31.38C98.6799 30.4315 98.4427 29.157 98.4427 27.5564V20.6799C98.4427 19.5141 98.3736 18.9312 98.2353 18.9312L96.0419 18.9608C95.9036 18.9213 95.8344 18.8225 95.8344 18.6644C95.9332 18.4668 96.0221 18.1111 96.1012 17.5974H98.2056C98.3637 17.5974 98.4427 17.2516 98.4427 16.56L98.4131 14.0406C99.1442 13.7442 99.8951 13.1316 100.666 12.2029C100.903 12.2029 101.081 12.2622 101.199 12.3807C101.021 14.4555 100.932 16.1944 100.932 17.5974C102.375 17.5974 103.798 17.5282 105.201 17.3899C105.339 17.4689 105.408 17.5875 105.408 17.7456C105.29 17.9432 105.191 18.3087 105.112 18.8423L100.903 18.9015V25.8373ZM129.802 23.555L134.544 23.6439C135.473 23.6439 136.382 23.5649 137.271 23.4068C137.35 23.6044 137.389 23.7724 137.389 23.9107L137.33 24.2664C136.579 24.5825 136.164 25.2247 136.085 26.193C135.947 27.5367 135.878 29.4336 135.878 31.8839C134.692 31.8839 133.319 32.0321 131.758 32.3285C130.197 32.6446 128.952 32.8027 128.023 32.8027C124.625 32.8027 121.937 31.7455 119.961 29.6312C118.005 27.4971 117.027 24.8197 117.027 21.5988C117.027 18.3581 118.094 15.6807 120.228 13.5663C122.362 11.452 125.089 10.3949 128.409 10.3949C131.096 10.3949 133.477 10.6814 135.552 11.2544C135.69 11.2939 135.759 11.3631 135.759 11.4619C135.759 11.5607 135.749 11.6891 135.73 11.8472C135.73 12.0053 135.71 12.2325 135.67 12.5289C135.651 12.8056 135.631 13.1217 135.611 13.4774C135.572 14.2283 135.552 15.2163 135.552 16.4414C135.413 16.5205 135.226 16.56 134.989 16.56C134.752 16.56 134.564 16.5303 134.425 16.4711C134.07 14.8705 133.813 13.8726 133.655 13.4774C132.094 12.1337 130.197 11.4619 127.964 11.4619C125.751 11.4619 123.903 12.2523 122.421 13.8331C120.959 15.4139 120.228 17.5776 120.228 20.3243C120.228 22.2607 120.544 24.0787 121.176 25.778C121.828 27.4774 122.787 28.8803 124.051 29.9869C125.336 31.0737 126.818 31.6171 128.497 31.6171C130.197 31.6171 131.817 31.2614 133.358 30.5501V28.742C133.358 27.26 133.299 25.9163 133.181 24.711C132.173 24.5924 131.047 24.5331 129.802 24.5331C129.723 24.3948 129.683 24.2367 129.683 24.0589L129.802 23.555ZM151.065 21.4209L150.976 28.6531C150.976 30.0956 151.44 30.8168 152.369 30.8168L153.436 30.7872C153.515 30.886 153.555 31.0441 153.555 31.2614L153.495 31.5875C151.974 31.8641 150.887 32.2692 150.235 32.8027C149.8 32.6841 149.425 32.4174 149.109 32.0024C148.812 31.5677 148.644 31.1132 148.605 30.639C147.024 31.6072 145.453 32.3285 143.892 32.8027C143.22 32.8027 142.529 32.4273 141.817 31.6764C141.106 30.9057 140.75 29.9474 140.75 28.8013C140.75 28.2283 140.879 27.7145 141.135 27.26C141.392 26.7858 141.699 26.4597 142.054 26.2819C143.517 25.5508 145.69 24.9086 148.575 24.3553V21.5395C148.575 20.4527 148.397 19.6425 148.042 19.109C147.706 18.5755 147.291 18.3087 146.797 18.3087C146.322 18.3087 145.809 18.3977 145.255 18.5755C144.702 18.7336 144.307 19.0497 144.07 19.524C143.852 19.9982 143.744 20.6701 143.744 21.5395C143.744 21.6185 143.605 21.7075 143.329 21.8063C143.072 21.8853 142.736 21.9248 142.321 21.9248C141.926 21.9248 141.649 21.8359 141.491 21.6581C141.353 21.4605 141.284 21.1739 141.284 20.7985C141.284 20.0871 141.797 19.3165 142.825 18.4866C143.062 18.3285 143.754 18.0617 144.9 17.6863C146.066 17.3109 146.737 17.1231 146.915 17.1231C148.338 17.1231 149.385 17.5381 150.057 18.368C150.729 19.1979 151.065 20.2156 151.065 21.4209ZM143.388 28.6531C143.388 29.1273 143.576 29.6411 143.951 30.1944C144.327 30.7477 144.752 31.0243 145.226 31.0243C145.72 31.0243 146.283 30.8563 146.915 30.5204C147.548 30.1845 148.071 29.8288 148.486 29.4534C148.545 28.2875 148.575 26.9439 148.575 25.4223C146.915 25.6397 145.453 26.1139 144.188 26.8451C143.655 27.1019 143.388 27.7046 143.388 28.6531ZM162.125 32.2988L158.865 32.2099C157.166 32.2099 155.694 32.2889 154.449 32.447C154.35 32.3285 154.3 32.1605 154.3 31.9431L154.33 31.706C155.259 31.5282 155.871 31.2614 156.168 30.9057C156.484 30.5501 156.711 29.9474 156.85 29.0977C157.008 28.248 157.087 25.1457 157.087 19.7907V12.2029C157.087 10.4047 156.879 9.30806 156.464 8.91286C156.247 8.6955 155.97 8.56706 155.634 8.52754L154.567 8.40898C154.508 8.31018 154.478 8.19162 154.478 8.0533C154.478 7.89522 154.508 7.76678 154.567 7.66798C155.97 7.4111 157.057 7.09494 157.828 6.7195C158.341 6.46262 158.924 6.11682 159.576 5.6821C159.774 5.6821 159.932 5.7809 160.051 5.9785C159.636 8.56706 159.428 13.2008 159.428 19.8797V23.3475C159.428 28.5444 159.557 31.1824 159.814 31.2614C160.169 31.3405 160.94 31.38 162.125 31.38C162.165 31.5183 162.185 31.6764 162.185 31.8542C162.185 32.0321 162.165 32.1803 162.125 32.2988ZM170.983 32.2988L167.722 32.2099C166.023 32.2099 164.551 32.2889 163.306 32.447C163.207 32.3285 163.158 32.1605 163.158 31.9431L163.187 31.706C164.116 31.5282 164.729 31.2614 165.025 30.9057C165.341 30.5501 165.568 29.9474 165.707 29.0977C165.865 28.248 165.944 25.1457 165.944 19.7907V12.2029C165.944 10.4047 165.736 9.30806 165.321 8.91286C165.104 8.6955 164.827 8.56706 164.492 8.52754L163.425 8.40898C163.365 8.31018 163.336 8.19162 163.336 8.0533C163.336 7.89522 163.365 7.76678 163.425 7.66798C164.827 7.4111 165.914 7.09494 166.685 6.7195C167.199 6.46262 167.782 6.11682 168.434 5.6821C168.631 5.6821 168.789 5.7809 168.908 5.9785C168.493 8.56706 168.285 13.2008 168.285 19.8797V23.3475C168.285 28.5444 168.414 31.1824 168.671 31.2614C169.026 31.3405 169.797 31.38 170.983 31.38C171.022 31.5183 171.042 31.6764 171.042 31.8542C171.042 32.0321 171.022 32.1803 170.983 32.2988ZM180.581 30.6686C182.201 30.6686 183.634 30.2339 184.879 29.3645C185.155 29.4633 185.313 29.6707 185.353 29.9869L182.152 32.2395C181.678 32.615 180.62 32.8027 178.98 32.8027C177.34 32.8027 175.947 32.0716 174.801 30.6093C173.655 29.1273 173.082 27.26 173.082 25.0074C173.082 22.7547 173.704 20.9763 174.949 19.6722C176.194 18.368 177.676 17.5183 179.395 17.1231C180.897 17.1231 182.221 17.627 183.367 18.6348C184.059 19.2276 184.543 19.9982 184.819 20.9467C184.879 21.1838 185.155 21.3123 185.649 21.332C185.768 21.4703 185.827 21.6185 185.827 21.7766C185.827 21.9149 185.807 22.0631 185.768 22.2212C182.29 23.0314 178.872 23.5945 175.513 23.9107C175.513 26.44 176.214 28.3369 177.617 29.6016C178.407 30.3129 179.395 30.6686 180.581 30.6686ZM182.448 21.6284C182.547 21.5691 182.596 21.5 182.596 21.4209C182.596 21.3221 182.468 21.0455 182.211 20.591C181.974 20.1168 181.549 19.6228 180.937 19.109C180.324 18.5755 179.682 18.3087 179.01 18.3087C178.338 18.3087 177.844 18.4075 177.528 18.6051C176.421 19.356 175.789 20.7195 175.631 22.6955C176.698 22.6955 177.913 22.5868 179.277 22.3694C180.64 22.1323 181.697 21.8853 182.448 21.6284ZM188.987 18.9015L187.831 18.9312C187.732 18.8324 187.683 18.6842 187.683 18.4866L187.742 18.1309C189.086 17.9531 190.182 17.6764 191.032 17.301C191.309 17.1824 191.477 17.1231 191.536 17.1231C191.753 17.1231 192 17.5183 192.277 18.3087C192.554 19.0794 192.722 19.85 192.781 20.6207C194.263 19.0794 195.607 17.9135 196.812 17.1231C197.602 17.1231 198.254 17.3603 198.768 17.8345C199.282 18.289 199.539 18.862 199.539 19.5536C199.539 20.344 198.837 20.7392 197.434 20.7392C197.138 19.6919 196.634 19.1683 195.923 19.1683C195.448 19.1683 194.46 19.9883 192.959 21.6284C192.84 23.1302 192.781 25.5211 192.781 28.8013C192.781 30.4414 192.909 31.2713 193.166 31.2911C193.621 31.3503 194.421 31.38 195.567 31.38C195.626 31.5183 195.656 31.6764 195.656 31.8542C195.656 32.0321 195.626 32.1803 195.567 32.2988L192.247 32.2099C190.627 32.2099 189.194 32.2889 187.95 32.447C187.851 32.3285 187.801 32.1605 187.801 31.9431L187.831 31.706C188.878 31.5084 189.55 31.2021 189.846 30.7872C190.064 30.471 190.222 29.9671 190.321 29.2755C190.42 28.5642 190.469 27.181 190.469 25.1259C190.469 23.0709 190.459 21.9347 190.439 21.7173C190.439 21.5 190.429 21.2135 190.41 20.8578C190.39 20.5021 190.35 20.2353 190.291 20.0575C190.232 19.8797 190.143 19.6821 190.024 19.4647C189.827 19.0893 189.481 18.9015 188.987 18.9015ZM202.409 17.5974L204.958 17.5085C204.998 17.6073 205.018 17.7555 205.018 17.9531L204.958 18.4273C204.346 18.4273 203.911 18.4471 203.654 18.4866C203.832 19.6919 204.306 21.2233 205.077 23.0808L207.952 30.1944L210.531 23.5847C211.4 21.3518 211.894 19.6919 212.013 18.6051C211.301 18.5261 210.57 18.4866 209.819 18.4866C209.74 18.368 209.701 18.2297 209.701 18.0716C209.701 17.9135 209.721 17.7555 209.76 17.5974H212.665C213.574 17.5974 214.404 17.5381 215.155 17.4195C215.313 17.6764 215.392 17.9333 215.392 18.1902C214.898 18.4075 214.542 18.6249 214.325 18.8423C213.791 19.4153 213.208 20.4329 212.576 21.8952L208.278 32.2099C208.021 32.8225 207.606 33.8796 207.033 35.3814C206.46 36.9029 206.055 37.9601 205.818 38.5529C205.601 39.1457 205.393 39.6989 205.196 40.2127C204.998 40.7462 204.771 41.2995 204.514 41.8725C203.98 43.0977 203.556 43.7102 203.239 43.7102C203.141 43.7102 202.933 43.6509 202.617 43.5324C201.767 43.236 200.809 42.9692 199.742 42.7321C199.742 42.3369 199.831 42.0207 200.009 41.7836C200.72 41.9022 201.105 41.9615 201.165 41.9615C201.738 41.9615 202.469 41.2896 203.358 39.9459C204.267 38.622 204.968 37.308 205.462 36.0038L206.529 33.1584L201.698 21.3024C201.204 20.0575 200.75 19.2177 200.335 18.783C200.078 18.4668 199.692 18.2297 199.179 18.0716C199.179 17.7159 199.228 17.4591 199.327 17.301C200.631 17.4986 201.659 17.5974 202.409 17.5974Z" fill="white"/>
<path fill-rule="evenodd" clip-rule="evenodd" d="M6.67 6.98993C6.67 6.98993 6.86496 9.63417 6.67 11.3099C6.30434 14.453 4.09901 17.6746 2.5492 19.9386C1.66884 21.2247 1 22.2017 1 22.6799C1 23.4189 2.34646 25.1344 3.95709 27.1865C5.22343 28.7999 6.65308 30.6214 7.72 32.3399C10.1275 36.2177 12.9027 41.8362 14.5001 45.1833V30.8324L14.4996 30.8323V28.1104C14.9203 28.2464 15.369 28.32 15.835 28.32C18.2292 28.32 20.17 26.3791 20.17 23.985C20.17 21.5908 18.2292 19.65 15.835 19.65C15.369 19.65 14.9203 19.7235 14.4996 19.8595V17.1376C14.9318 17.0538 15.3782 17.0099 15.8348 17.0099C19.687 17.0099 22.8098 20.1327 22.8098 23.9849C22.8098 27.391 20.3684 30.2269 17.1401 30.838V45.1831C18.7375 41.8359 21.5126 36.2177 23.92 32.3399C24.9869 30.6214 26.4166 28.7999 27.6829 27.1865C29.2935 25.1344 30.64 23.4189 30.64 22.6799C30.64 22.2015 29.9741 21.2231 29.0979 19.9356C27.5564 17.6707 25.3639 14.4491 25 11.3099C24.8058 9.63408 25 6.98993 25 6.98993H6.67Z" fill="white"/>
<rect x="6.67023" width="18.33" height="4.32" fill="white"/>
</svg>
